# xmcd
#
# Track frame offsets: 
#        150
#        1203
#        50859
#        85915
#        123967
#        205916
#        235459
#
# Disc length: 3552 seconds
#
# Revision: 1
# Processed by: cddbd v1.5.2PL0 Copyright (c) Steve Scherf et al.
# Submitted via: ExactAudioCopy v1.0b1
#
DISCID=590dde07
DTITLE=Johnny Winter - Rockpalast: Blues Rock Legends Vol. 3 [CD 1]
DYEAR=2011
DGENRE=Blues
TTITLE0=Albrecht Metzger - Intro
TTITLE1=Hideaway
TTITLE2=Messin' With The Kid
TTITLE3=Walking By Myself
TTITLE4=Mississippi Blues
TTITLE5=Divin' Duck
TTITLE6=Johnny B. Goode
EXTD=
EXTT0=
EXTT1=
EXTT2=
EXTT3=
EXTT4=
EXTT5=
EXTT6=
PLAYORDER=
